PathFileType	4	(X/Y/Z)	TVC_32_BWA_06_walk_RCNL2025.trc
DataRate	CameraRate	NumFrames	NumMarkers	Units	OrigDataRate	OrigDataStartFrame	OrigNumFrames
100	100	9	27	mm	100	338	386
Frame#	Time	R_Shoulder			L_Shoulder			C7			J_Notch			R_Elbow			L_Elbow			R_Wrist			L_Wrist			R_Asis			L_Asis			R_Psis			L_Psis			Sacral			Thoracic			Sternum			R_Thigh_Lateral			R_Knee_Lateral			R_Shank_Lateral			R_Ankle_Lateral			R_Heel			R_Toe			L_Thigh_Lateral			L_Knee_Lateral			L_Shank_Lateral			L_Ankle_Lateral			L_Heel			L_Toe		
		X1	Y1	Z1	X2	Y2	Z2	X3	Y3	Z3	X4	Y4	Z4	X5	Y5	Z5	X6	Y6	Z6	X7	Y7	Z7	X8	Y8	Z8	X9	Y9	Z9	X10	Y10	Z10	X11	Y11	Z11	X12	Y12	Z12	X13	Y13	Z13	X14	Y14	Z14	X15	Y15	Z15	X16	Y16	Z16	X17	Y17	Z17	X18	Y18	Z18	X19	Y19	Z19	X20	Y20	Z20	X21	Y21	Z21	X22	Y22	Z22	X23	Y23	Z23	X24	Y24	Z24	X25	Y25	Z25	X26	Y26	Z26	X27	Y27	Z27
338	3.37000000	761.468384	1485.273804	456.146454	738.284729	1437.442383	88.069527	701.058716	1512.869141	271.399689	860.533875	1410.236206	279.418427	737.172119	1143.463867	594.479675	721.485779	1117.775146	-36.851913	812.756500	879.080750	568.502838	846.989105	874.563599	-29.539696	782.633301	1009.674377	450.291901	775.202148	1019.688721	162.773911	592.440918	1023.691711	366.906799	588.457153	1025.559204	268.489197	590.449036	1024.625458	317.697998	618.699646	1256.416626	303.855438	878.750610	1264.294922	287.660828	781.579895	643.033752	557.101074	858.103333	518.143433	528.137268	687.077148	394.990631	549.675476	560.103271	230.065018	458.259399	514.238037	250.009552	385.374603	624.390869	93.069733	464.930664	713.108459	671.983521	108.962776	734.914612	506.910400	174.559631	710.810425	344.600494	114.678886	753.910950	72.969009	180.932373	688.039001	57.454220	233.534729	895.880432	37.675922	200.823166
339	3.38000000	767.974121	1485.613281	455.590698	745.979309	1437.609375	87.415962	708.471191	1513.140869	270.617249	867.822205	1410.368042	279.067566	738.371216	1143.847290	593.366882	735.003601	1118.157471	-38.639187	809.996246	878.402222	567.241760	864.251862	877.018738	-31.002686	790.258850	1009.833313	449.230988	780.700684	1019.899658	161.863113	599.508850	1024.171143	367.468201	596.066345	1025.784668	267.607880	597.787598	1024.977905	317.538040	625.809509	1256.927124	303.709564	885.842834	1264.384399	287.112366	795.294983	644.437866	555.765564	873.755432	520.855774	525.852112	706.579468	392.259003	547.851013	583.910767	223.815598	456.345490	536.668091	241.913330	383.607971	654.438232	90.490929	462.767303	716.604797	672.298767	108.868576	737.706299	507.051941	174.371857	712.073181	344.887787	114.656380	753.925781	72.974426	181.094040	688.089844	57.596558	233.675919	895.843567	37.683659	200.789261
340	3.39000000	774.537964	1485.918091	455.133118	753.575928	1437.822632	86.841049	715.884766	1513.360107	269.947235	875.118896	1410.467285	278.744720	739.588196	1144.347168	592.439819	748.114136	1118.636963	-40.169796	807.303284	877.926270	565.933746	881.453186	879.857361	-32.181890	797.943359	1009.919373	448.258087	786.270691	1020.083130	161.080109	606.625854	1024.582886	368.108765	603.264526	1026.067261	267.307922	604.945190	1025.325073	317.708344	632.979431	1257.376099	303.615204	892.962830	1264.442505	286.560913	808.742493	645.768433	554.433716	888.910706	523.378357	523.390076	726.208069	388.846039	546.105347	608.216064	216.770523	454.554382	559.721619	232.866180	381.932495	684.965454	87.470131	460.710968	720.156616	672.598999	108.748680	740.487366	507.188293	174.194061	713.692993	345.255463	114.588989	753.940002	72.980911	181.217636	688.143311	57.755157	233.774536	895.800171	37.696381	200.733276
341	3.40000000	781.170898	1486.177124	454.777008	761.092834	1438.067017	86.346581	723.305908	1513.520508	269.393616	882.430603	1410.523682	278.454529	740.834045	1144.943970	591.684326	760.820801	1119.183960	-41.458210	804.690613	877.625916	564.593079	898.551025	883.043243	-33.090996	805.671814	1009.925659	447.377563	791.918762	1020.243286	160.418823	613.798157	1024.920776	368.810547	610.143066	1026.382690	267.484436	611.970612	1025.651733	318.147491	640.205322	1257.753906	303.576355	900.115173	1264.457886	286.014069	821.899231	646.998047	553.114136	903.535217	525.673584	520.780090	745.921082	384.839233	544.429932	633.018494	209.031509	452.885712	583.422058	222.959305	380.341644	715.915588	84.097374	458.818298	723.807312	672.859314	108.602760	743.269165	507.312347	174.033539	715.612976	345.671967	114.504242	753.954224	72.989075	181.311035	688.194458	57.919853	233.836975	895.751221	37.708836	200.666275
342	3.41000000	787.879761	1486.379272	454.521667	768.549866	1438.323364	85.935280	730.740173	1513.616455	268.959351	889.762817	1410.526978	278.204651	742.121399	1145.612061	591.075623	773.134521	1119.761230	-42.516163	802.172058	877.473480	563.237732	915.504944	886.528442	-33.744552	813.431885	1009.845520	446.586670	797.647949	1020.379395	159.867294	621.027893	1025.183594	369.554047	616.809753	1026.705200	268.010986	618.918823	1025.944397	318.782516	647.479431	1258.053223	303.601776	907.304199	1264.419678	285.480713	834.744385	648.099976	551.814148	917.596191	527.708008	518.057983	765.642273	380.344452	542.805115	658.315125	200.710175	451.341187	607.784973	212.297974	378.838989	747.241943	80.470955	457.134308	727.590027	673.059814	108.441277	746.056702	507.416656	173.900879	717.720093	346.100250	114.433105	753.969116	72.997887	181.386398	688.239136	58.076885	233.876495	895.696655	37.713814	200.600388
343	3.42000000	794.669617	1486.513916	454.363678	775.966980	1438.572144	85.610329	738.192505	1513.642822	268.644012	897.120605	1410.468994	278.003235	743.463623	1146.322876	590.581665	785.075562	1120.331665	-43.353199	799.763672	877.443085	561.886719	932.275909	890.255615	-34.155022	821.215942	1009.672485	445.879364	803.458496	1020.485718	159.409729	628.313538	1025.373535	370.321106	623.364563	1027.010376	268.766754	625.839050	1026.191956	319.543930	654.796875	1258.269897	303.701050	914.534119	1264.318481	284.970459	847.254700	649.049561	550.538879	931.057556	529.449280	515.257507	785.268250	375.472748	541.206848	684.100220	191.923981	449.924011	632.815247	201.001114	377.437653	778.910095	76.703392	455.691162	731.514099	673.197266	108.283501	748.851074	507.496857	173.805664	719.879333	346.507874	114.402824	753.984253	73.005646	181.457291	688.277588	58.216888	233.907898	895.635986	37.705162	200.546112
344	3.43000000	801.544495	1486.574097	454.298706	783.362610	1438.794434	85.375168	745.666504	1513.596191	268.444946	904.508606	1410.344604	277.856567	744.877014	1147.051270	590.169556	796.677673	1120.864990	-43.979923	797.483704	877.511688	560.559143	948.827484	894.162323	-34.331023	829.022278	1009.401550	445.248749	809.349182	1020.552551	159.028702	635.651978	1025.489746	371.095398	629.889282	1027.274902	269.649933	632.770630	1026.382324	320.372665	662.155640	1258.403687	303.884369	921.809570	1264.148438	284.492920	859.400208	649.822754	549.290710	943.878723	530.865784	512.404785	804.686462	370.330170	539.614990	710.365173	182.792023	448.641754	658.507141	189.199432	376.160736	810.893372	72.920837	454.504761	735.563049	673.285217	108.150696	751.652893	507.552338	173.753448	721.970093	346.874237	114.430298	753.998352	73.010567	181.536331	688.313843	58.336586	233.944565	895.570251	37.680576	200.510147
345	3.44000000	808.507874	1486.557251	454.324371	790.752930	1438.974121	85.233894	753.165222	1513.476196	268.358795	911.932129	1410.152832	277.770172	746.384216	1147.780762	589.811218	807.987305	1121.340088	-44.409439	795.352600	877.658447	559.272217	965.129639	898.188080	-34.279412	836.853882	1009.030579	444.687927	815.316650	1020.568176	158.708572	643.042175	1025.524780	371.862915	636.442566	1027.481689	270.586273	639.742371	1026.503235	321.224594	669.554932	1258.455078	304.161743	929.134583	1263.908081	284.057526	871.138245	650.393005	548.067139	956.018677	531.927490	509.518494	823.795593	365.009796	538.017822	737.098572	173.433487	447.509644	684.846985	177.031616	375.042725	843.165588	69.257408	453.571686	739.705627	673.343750	108.058136	754.463257	507.584747	173.745468	723.916016	347.193604	114.517303	754.008545	73.010849	181.633041	688.351379	58.433949	233.997726	895.502258	37.641644	200.494705
346	3.45000000	815.561646	1486.465942	454.441040	798.151855	1439.097290	85.190132	760.692993	1513.285522	268.381622	919.397400	1409.895264	277.751373	748.014221	1148.503906	589.485107	819.052490	1121.742310	-44.651634	793.393341	877.864624	558.040619	981.159760	902.279205	-34.008649	844.716858	1008.560852	444.190460	821.355042	1020.521423	158.438126	650.485962	1025.471069	372.615448	643.060181	1027.624634	271.532013	646.773071	1026.547852	322.073730	676.995850	1258.425659	304.538544	936.512878	1263.598755	283.672882	882.411133	650.728760	546.859253	967.441101	532.607056	506.613037	842.518738	359.583160	536.415894	764.286377	163.968033	446.549805	711.813538	164.641113	374.129852	875.694214	65.847534	452.868805	743.908936	673.388489	108.013466	757.285339	507.595764	173.778900	725.697815	347.473633	114.650467	754.010986	73.004822	181.752167	688.388245	58.505646	234.075302	895.434875	37.592651	200.497299
